# xmcd
#
# Track frame offsets: 
#        150
#        11871
#        22947
#        34233
#        48060
#        57660
#        70294
#        81157
#        91918
#        103798
#        113619
#        125285
#        136893
#        146308
#        155680
#        167158
#        177524
#        187498
#
# Disc length: 2636 seconds
#
# Revision: 0
# Processed by: cddbd v1.5.1PL0 Copyright (c) Steve Scherf et al.
# Submitted via: ExactAudioCopy v0.95a5
#
DISCID=fa0a4a12
DTITLE=Patsy Cline - Walking After Midnight CD2
DYEAR=2002
DGENRE=Country
TTITLE0=A Poor Man's Roses Or A Rich Man's Gold
TTITLE1=Stop The World (And Let Me Off)
TTITLE2=Just Out Of Reach
TTITLE3=A Church, A Coutroom And Then Goodbye
TTITLE4=I'm Moving Along
TTITLE5=Fingerprints
TTITLE6=I Cried All The Way To The Alter
TTITLE7=I Can See An Angel Walkin'
TTITLE8=If I Could Only Stay Asleep
TTITLE9=I'm Blue Again
TTITLE10=I've Loved And Lost Again
TTITLE11=Let The Teardrops Fall
TTITLE12=Love, Love, Love Me Honey, Do
TTITLE13=Come On In (And Make Yourself At Home)
TTITLE14=The Heart You Break May Be Your Own
TTITLE15=Pick Me Up On Your Way Down
TTITLE16=Turn The Cards Slowly
TTITLE17=Walkin' Dream
EXTD=
EXTT0=
EXTT1=
EXTT2=
EXTT3=
EXTT4=
EXTT5=
EXTT6=
EXTT7=
EXTT8=
EXTT9=
EXTT10=
EXTT11=
EXTT12=
EXTT13=
EXTT14=
EXTT15=
EXTT16=
EXTT17=
PLAYORDER=
